# xmcd
#
# Track frame offsets:
# 150
# 9634
# 19428
# 38019
# 50117
# 60593
# 71308
# 91905
# 99094
# 110497
# 125981
# 136819
# 149393
# 160630
# 172526
# 185237
# 194458
# 205985
#
# Disc length: 2973 seconds
#
#
# Revision: 0
# Processed by: cddbd v1.5.2PL0 Copyright (c) Steve Scherf et al.
# Submitted via: FreeRIP 2.945 
#
DISCID=fa0b9b12
DTITLE=Various Artist - Country Greats
DYEAR=2000
DGENRE=Country
TTITLE0=Building Heartaches - Willie Nelson
TTITLE1=Release Me - Dolly Parton
TTITLE2=Lighthouse Bar - Blackwater Band
TTITLE3=Dont Think Twice, It's Allright - Waylon Jennings
TTITLE4=What Am I Living For - Carl Perkins
TTITLE5=It Wasn't God That Made Honky Tonk Angels - Dolly Parton
TTITLE6=Love Hurts - Gram Parsons and EmmyLou Harris
TTITLE7=Treat Me Mean, Treat Me Cruel - Conway Twitty
TTITLE8=I Can't Change Overnight - George Jones
TTITLE9=Way Out There - Gene Parsons
TTITLE10=Let The Sun Shine On The People - Stonewall Jackson
TTITLE11=Georgia In A Jug - Johnny Patcheck
TTITLE12=Sally Was A Good Old Girl - Waylon Jennings
TTITLE13=You Made Me What I Am - Conway Twitty
TTITLE14=By The Time I Get To Pheonix - Nashville West
TTITLE15=I Can't Help It If I'm Still In Love - Faron Young
TTITLE16=I've Loved And Lost Again - Patsy Cline
TTITLE17=Boogey Yodel Cowboy Blues - John Brosnan
EXTD=
EXTT0=
EXTT1=
EXTT2=
EXTT3=
EXTT4=
EXTT5=
EXTT6=
EXTT7=
EXTT8=
EXTT9=
EXTT10=
EXTT11=
EXTT12=
EXTT13=
EXTT14=
EXTT15=
EXTT16=
EXTT17=
PLAYORDER=
